# xmcd
#
# Track frame offsets: 
#        150
#        10939
#        21145
#        30840
#        43805
#        52947
#        64145
#        75254
#        86343
#        96247
#        107982
#        118058
#        129578
#        139562
#        148737
#        159426
#        168114
#        177282
#        189707
#        199922
#        209998
#        220557
#        231686
#        242074
#        252023
#        263305
#        272781
#        283318
#
# Disc length: 3936 seconds
#
# Revision: 1
# Processed by: cddbd v1.5.2PL0 Copyright (c) Steve Scherf et al.
# Submitted via: ExactAudioCopy v1.1
#
DISCID=900f5e1c
DTITLE=Buck Owens - Complete Capitol Singles 1957-1966 - Disc 2
DYEAR=2016
DGENRE=Country
TTITLE0=Act Naturally (mono single version)
TTITLE1=Over And Over Again (mono single version)
TTITLE2=Buck Owens and Rose Maddox - We're The Talk Of The Town (mono si
TTITLE2=ngle version)
TTITLE3=Buck Owens and Rose Maddox - Sweethearts In Heaven (mono single 
TTITLE3=version)
TTITLE4=Love's Gonna Live Here (mono single version)
TTITLE5=Getting Used To Losing You (mono single version)
TTITLE6=My Heart Skips A Beat (mono single version)
TTITLE7=Together Again (mono single version)
TTITLE8=I Don't Care (Just As Long As You Love Me) (mono single versio
TTITLE8=n)
TTITLE9=Don't Let Her Know (mono single version)
TTITLE10=I've Got A Tiger By The Tail (mono single version)
TTITLE11=Cryin' Time (mono single version)
TTITLE12=Before You Go (mono single version)
TTITLE13=(I Want) No One But You (mono single version)
TTITLE14=Only You (Can Break My Heart) (mono single version)
TTITLE15=Gonna Have Love (mono single version)
TTITLE16=Buckaroo (mono single version)
TTITLE17=If You Want A Love (mono single version)
TTITLE18=Santa Looked A Lot Like Daddy (mono single version)
TTITLE19=All I Want For Christmas Is You (mono single version)
TTITLE20=Waitin' In Your Welfare Line (mono single version)
TTITLE21=In The Palm Of Your Hand (mono single version)
TTITLE22=Think Of Me (mono single version)
TTITLE23=Heart Of Glass (mono single version)
TTITLE24=Open Up Your Heart (mono single version)
TTITLE25=No More Me And You (mono single version)
TTITLE26=Where Does The Good Times Go (mono single version)
TTITLE27=The Way That I Love You (mono single version)
EXTD=
EXTT0=
EXTT1=
EXTT2=
EXTT3=
EXTT4=
EXTT5=
EXTT6=
EXTT7=
EXTT8=
EXTT9=
EXTT10=
EXTT11=
EXTT12=
EXTT13=
EXTT14=
EXTT15=
EXTT16=
EXTT17=
EXTT18=
EXTT19=
EXTT20=
EXTT21=
EXTT22=
EXTT23=
EXTT24=
EXTT25=
EXTT26=
EXTT27=
PLAYORDER=
